<?xml version="1.0" encoding="UTF-8" standalone="no"?>
<svg
   xmlns:dc="http://purl.org/dc/elements/1.1/"
   xmlns:cc="http://creativecommons.org/ns#"
   xmlns:rdf="http://www.w3.org/1999/02/22-rdf-syntax-ns#"
   xmlns:svg="http://www.w3.org/2000/svg"
   xmlns="http://www.w3.org/2000/svg"
   xmlns:xlink="http://www.w3.org/1999/xlink"
   xmlns:sodipodi="http://sodipodi.sourceforge.net/DTD/sodipodi-0.dtd"
   xmlns:inkscape="http://www.inkscape.org/namespaces/inkscape"
   version="1.0"
   width="121.63998"
   height="122.1367"
   id="ant"
   inkscape:version="0.48.0 r9654"
   sodipodi:docname="icon.svg"
   inkscape:export-filename="/home/blywis/svn/des-testbed/Software/DES-SERT/des-ara/trunk/icon.png"
   inkscape:export-xdpi="73.68792"
   inkscape:export-ydpi="73.68792">
  <sodipodi:namedview
     pagecolor="#ffffff"
     bordercolor="#666666"
     borderopacity="1"
     objecttolerance="10"
     gridtolerance="10"
     guidetolerance="10"
     inkscape:pageopacity="0"
     inkscape:pageshadow="2"
     inkscape:window-width="811"
     inkscape:window-height="713"
     id="namedview18"
     showgrid="false"
     inkscape:zoom="2.328125"
     inkscape:cx="51.006509"
     inkscape:cy="58.578072"
     inkscape:window-x="386"
     inkscape:window-y="303"
     inkscape:window-maximized="0"
     inkscape:current-layer="ant"
     fit-margin-top="3"
     fit-margin-left="3"
     fit-margin-right="1"
     fit-margin-bottom="1" />
  <metadata
     id="metadata3">
    <rdf:RDF>
      <cc:Work
         rdf:about="ant">
        <dc:format>image/svg+xml</dc:format>
        <dc:type
           rdf:resource="http://purl.org/dc/dcmitype/StillImage" />
        <dc:title>ant</dc:title>
        <dc:creator>
          <cc:Agent>
            <dc:title>Andy Fitzsimon</dc:title>
          </cc:Agent>
        </dc:creator>
        <dc:source>andy.brisgeek.com</dc:source>
        <dc:subject>
          <rdf:Bag>
            <rdf:li>ant</rdf:li>
            <rdf:li>logo</rdf:li>
            <rdf:li>shiny</rdf:li>
            <rdf:li>insect</rdf:li>
            <rdf:li>glossy</rdf:li>
          </rdf:Bag>
        </dc:subject>
        <cc:license
           rdf:resource="http://creativecommons.org/licenses/by-sa/2.5/" />
        <dc:date>2006-08-30</dc:date>
        <dc:contributor>
          <cc:Agent>
            <dc:title>Andy Fitzsimon</dc:title>
          </cc:Agent>
        </dc:contributor>
        <dc:description>Balanced ant design with specularity.</dc:description>
      </cc:Work>
      <cc:License
         rdf:about="http://creativecommons.org/licenses/by-sa/2.5/">
        <cc:permits
           rdf:resource="http://web.resource.org/cc/Reproduction" />
        <cc:permits
           rdf:resource="http://web.resource.org/cc/Distribution" />
        <cc:requires
           rdf:resource="http://web.resource.org/cc/Notice" />
        <cc:requires
           rdf:resource="http://web.resource.org/cc/Attribution" />
        <cc:permits
           rdf:resource="http://web.resource.org/cc/DerivativeWorks" />
        <cc:requires
           rdf:resource="http://web.resource.org/cc/ShareAlike" />
      </cc:License>
    </rdf:RDF>
  </metadata>
  <defs
     id="defs5">
    <linearGradient
       id="WhiteTransparent">
      <stop
         style="stop-color:white;stop-opacity:1"
         offset="0"
         id="stop8" />
      <stop
         style="stop-color:white;stop-opacity:0"
         offset="1"
         id="stop10" />
    </linearGradient>
    <linearGradient
       xlink:href="#WhiteTransparent"
       id="linearGradient3153"
       gradientUnits="userSpaceOnUse"
       gradientTransform="matrix(0.633768,2.365244,-2.365244,0.633768,761.1766,-1845.476)"
       x1="682.03998"
       y1="471.38"
       x2="680.06"
       y2="472.51999" />
    <linearGradient
       xlink:href="#WhiteTransparent"
       id="linearGradient3156"
       gradientUnits="userSpaceOnUse"
       gradientTransform="matrix(-2.365244,-0.633768,-0.633768,2.365244,1975.966,-632.1011)"
       x1="681.71997"
       y1="471.57001"
       x2="677.61316"
       y2="474.28696" />
  </defs>
  <g
     id="ant-group"
     transform="translate(-4.4530085,0.44095244)">
    <path
       id="ant-shape"
       style="fill:#550000"
       d="m 60.03,2.56 c -1.32,-0.13 -2.87,13.09 -2.94,13.88 -0.98,10.95 3.75,16.09 3.47,17.59 -0.27,1.5 -0.29,7.4 4.07,13.5 -1.34,1.38 -2.55,2.74 -3.63,4.1 -2.33,-4.1 -5.19,-8.48 -7.22,-10.5 -2.13,-2.14 -4.937047,-3.484228 -6.837047,-4.174228 -0.67,-0.24 -8.72,-8.71 -9.62,-7.81 -0.91,0.91 6.98,9.47 7.78,9.35 C 47.612953,41.955772 51.17,45 51.91,46.06 c 0.73,1.07 5.64,10.01 5.68,10.07 -1.87,2.91 -2.42,4.97 -3.12,7.46 -3.34,-3.54 -12.92,-6.31 -19.81,-6.31 -5.72,0 -15.11,-0.14 -16.85,0.16 C 11.32,58.55 6.2238926,61.331275 7.7138926,62.821275 8.8838926,63.991275 11.14,60.86 17.63,59.75 c 1.87,-0.32 16.45,2.43 18.62,2.28 2.17,-0.15 9.2,3.56 13.13,4.13 -3.73,-0.8 -7.355235,1.443356 -10.505235,4.593356 -4.323554,6.822944 -12.371372,15.064056 -2.898054,24.058523 6.310481,4.216276 9.211812,6.514291 20.891812,-5.165705 C 59.808523,86.716174 63.88,84.23 63.34,80.75 c 0.88,4.01 4.14,10.34 4,12.38 -0.14,2.17 2.57,16.71 2.25,18.59 -1.1,6.49 -1.234564,7.47752 -0.05456,8.65752 1.48,1.48 1.264564,-2.32752 2.374564,-8.81752 0.29,-1.74 0.15,-11.12 0.15,-16.84 0,-6.9 -2.76,-16.47 -6.31,-19.81 2.49,-0.7 4.58,-1.29 7.5,-3.16 0.05,0.04 8.96,4.98 10.03,5.72 1.07,0.74 5.822349,4.726577 9.292349,7.236577 -0.13,0.8 8.439997,8.69 9.339997,7.78 0.91,-0.9 -7.569997,-8.99 -7.809997,-9.66 -0.68,-1.9 -3.712349,-5.096577 -5.852349,-7.236577 -2.03,-2.02 -6.44,-4.91 -10.53,-7.25 1.35,-1.07 2.74,-2.25 4.12,-3.59 6.11,4.35 12.01,4.34 13.5,4.06 1.5,-0.27 4.921876,2.312349 15.881876,1.322349 0.78,-0.07 14.01,-1.62 13.87,-2.94 -0.16,-1.55 -12.4,-0.01 -13.22,0.38 C 109.70188,66.842349 99.94,66.69 98.78,66.19 c -1.16,-0.51 -6.86,-3.21 -14,-5 1.93,-3.3 1.98,-6.8 0.81,-9.85 2.92,2.91 5.61,4.46 8.82,1.25 3.51,-3.51 6.07,-7.42 7.53,-11.15 4.72,1.49 8.91477,-4.218188 9.83477,-3.788188 0.93,0.42 2.12,-0.25 3.19,-3.88 1.75,-5.97 2.81,-11.6 2.13,-11.91 -0.69,-0.3 -5.9,9.53 -5.54,13.13 -2.76,-1.93 -5.27477,3.518188 -8.58477,2.918188 0.79,-3.87 0.21,-7.25 -1.94,-9.47 0,-0.01 0.01,-0.03 0,-0.03 -0.02,-0.02 -0.04,-0.05 -0.06,-0.07 -2.22,-2.16 -5.66,-2.76 -9.53,-1.96 -0.61,-3.31 4.653423,-4.76094 2.733423,-7.52094 3.59,0.37 13.429997,-4.82 13.119997,-5.5 -0.31,-0.68 -5.93,0.34 -11.899997,2.09 -3.64,1.07 -4.31,2.3 -3.88,3.22 0.43,0.93 -5.063423,4.05094 -3.573423,8.77094 -3.73,1.45 -7.65,4.02 -11.16,7.53 -3.2,3.2 -1.66,5.9 1.25,8.81 -3.05,-1.16 -6.55,-1.11 -9.84,0.81 -1.79,-7.14 -4.53,-12.84 -5.03,-14 -0.51,-1.16 -2.77,-12.67 -3.5,-14.84 0.39,-0.81 1.93,-13.03 0.37,-13.19 z"
       inkscape:connector-curvature="0"
       sodipodi:nodetypes="cccccccsccccscscscccccccscsccscccccccccccccscccccccccccscccsccccc" />
    <path
       id="ant-specularity"
       style="opacity:0.4;fill:url(#linearGradient3156)"
       d="m 37.95,72.93 c 5.23,-5.24 9.57,-7.54 15.82,-1.28 0.81,0.81 -2.801477,3.323826 -4.051477,4.573826 -2.7,2.71 -8.200469,6.062818 -10.910469,8.772818 C 28.131778,92.038236 31.477237,83.321171 37.95,72.93 z M 79.2,34.66 c 4.19,-3.54 6.85,-4.97 11.36,-6.73 4.16,-1.62 6.05,-1.67 7.79,0.05 1.6,1.61 -3.844895,3.578829 -10.064895,9.788829 -2.82,2.84 -5.521862,5.710691 -8.201862,3.010691 C 77.403243,38.09952 76.32,37.11 79.2,34.66 z M 64.7,49.37 c 2.44,-2.8 5.76,-5.31 9.17,-5.31 2.06,-0.01 4.04,0.01 5.42,1.37 -2.691441,3.099309 -4.854895,5.441381 -7.664895,8.241381 -2.89,2.87 -9.138829,9.578829 -11.798829,11.228829 C 57.166276,66.54021 55.54,63.77 56.89,60.54 c 1.4,-3.33 4.52,-7.9 7.81,-11.17 z"
       inkscape:connector-curvature="0"
       sodipodi:nodetypes="cccccccccccccccccc" />
    <path
       id="ant-gloss"
       style="opacity:0.4;fill:url(#linearGradient3153)"
       d="m 54.258829,90.12021 c 5.23,-5.24 10.253513,-9.276276 4.003513,-15.536276 -5.49,-0.52 -13.893513,8.166276 -17.603513,11.896276 -10.97,10.96 4.09,13.12 13.6,3.64 z M 93.41,51.29 c 3.56,-4.17 4.97,-6.84 6.74,-11.35 1.6,-4.18 1.68,-6.06 -0.06,-7.79 -4.19,0.64 -17.39,11.77 -14.46,16.89 2.69,2.68 5.33,5.12 7.78,2.25 z m -14.7,14.49 c 2.79,-2.42 5.32,-5.76 5.32,-9.16 -0.01,-2.06 -0.02,-4.05 -1.37,-5.4 -7.51,0.32 -17.31,13.26 -21.92,19.14 -1.62,2.65 3.59,4.58 6.8,3.22 3.32,-1.39 7.9,-4.5 11.17,-7.8 z"
       inkscape:connector-curvature="0"
       sodipodi:nodetypes="ccccccccccccccc" />
  </g>
</svg>
