<?xml version="1.0" encoding="UTF-8" standalone="no"?>
<!-- Created with Inkscape (http://www.inkscape.org/) -->

<svg
   xmlns:dc="http://purl.org/dc/elements/1.1/"
   xmlns:cc="http://creativecommons.org/ns#"
   xmlns:rdf="http://www.w3.org/1999/02/22-rdf-syntax-ns#"
   xmlns:svg="http://www.w3.org/2000/svg"
   xmlns="http://www.w3.org/2000/svg"
   xmlns:sodipodi="http://sodipodi.sourceforge.net/DTD/sodipodi-0.dtd"
   xmlns:inkscape="http://www.inkscape.org/namespaces/inkscape"
   width="338"
   height="298"
   id="svg3758"
   version="1.1"
   inkscape:version="0.48.0 r9654"
   sodipodi:docname="icon.svg"
   inkscape:export-filename="/home/blywis/svn/des-testbed/Software/DES-SERT/des-olsr/trunk/icon.png"
   inkscape:export-xdpi="26.562473"
   inkscape:export-ydpi="26.562473">
  <defs
     id="defs3760" />
  <sodipodi:namedview
     id="base"
     pagecolor="#ffffff"
     bordercolor="#666666"
     borderopacity="1.0"
     inkscape:pageopacity="0.0"
     inkscape:pageshadow="2"
     inkscape:zoom="0.98994949"
     inkscape:cx="236.21701"
     inkscape:cy="72.441177"
     inkscape:document-units="px"
     inkscape:current-layer="layer1"
     showgrid="true"
     fit-margin-top="0"
     fit-margin-left="0"
     fit-margin-right="0"
     fit-margin-bottom="0"
     inkscape:window-width="777"
     inkscape:window-height="736"
     inkscape:window-x="235"
     inkscape:window-y="235"
     inkscape:window-maximized="0">
    <inkscape:grid
       type="xygrid"
       id="grid3766"
       empspacing="5"
       visible="true"
       enabled="true"
       snapvisiblegridlinesonly="true" />
  </sodipodi:namedview>
  <metadata
     id="metadata3763">
    <rdf:RDF>
      <cc:Work
         rdf:about="">
        <dc:format>image/svg+xml</dc:format>
        <dc:type
           rdf:resource="http://purl.org/dc/dcmitype/StillImage" />
        <dc:title />
      </cc:Work>
    </rdf:RDF>
  </metadata>
  <g
     inkscape:label="Layer 1"
     inkscape:groupmode="layer"
     id="layer1"
     transform="translate(-177,4.637817)">
    <path
       style="fill:none;stroke:#aa0000;stroke-width:6;stroke-linecap:butt;stroke-linejoin:miter;stroke-miterlimit:4;stroke-opacity:1;stroke-dasharray:none"
       d="m 327,43.362183 c 0,4.662162 -4.66216,111.891897 -4.66216,111.891897 L 466.86487,57.34867"
       id="path4333"
       inkscape:connector-curvature="0" />
    <path
       style="fill:none;stroke:#aa0000;stroke-width:6;stroke-linecap:butt;stroke-linejoin:miter;stroke-miterlimit:4;stroke-opacity:1;stroke-dasharray:none"
       d="M 224.43244,108.63245 327,43.362183 466.86487,57.34867 l 0,93.24324 -37.2973,83.91892 -158.51351,13.98649 51.28378,-93.24324 z"
       id="path3823"
       inkscape:connector-curvature="0"
       sodipodi:nodetypes="cccccccc"
       inkscape:export-xdpi="33.368275"
       inkscape:export-ydpi="33.368275" />
    <path
       sodipodi:type="arc"
       style="opacity:0.98999999;fill:#aaccff;fill-opacity:1;stroke:#4d4d4d;stroke-width:4.59815025;stroke-linecap:round;stroke-linejoin:bevel;stroke-miterlimit:4;stroke-opacity:1;stroke-dasharray:none;stroke-dashoffset:0"
       id="path3768"
       sodipodi:cx="215"
       sodipodi:cy="107.36218"
       sodipodi:rx="25"
       sodipodi:ry="25"
       d="m 240,107.36218 a 25,25 0 1 1 -50,0 25,25 0 1 1 50,0 z"
       transform="matrix(1.2681081,0,0,1.3427027,-49.143238,-38.320336)" />
    <path
       transform="matrix(1.2681081,0,0,1.2681081,47.829735,12.580194)"
       sodipodi:type="arc"
       style="opacity:0.98999999;fill:#8dd35f;fill-opacity:1;stroke:#4d4d4d;stroke-width:4.73145771;stroke-linecap:round;stroke-linejoin:bevel;stroke-miterlimit:4;stroke-opacity:1;stroke-dasharray:none;stroke-dashoffset:0"
       id="path3768-6"
       sodipodi:cx="215"
       sodipodi:cy="107.36218"
       sodipodi:rx="25"
       sodipodi:ry="25"
       d="m 240,107.36218 a 25,25 0 1 1 -50,0 25,25 0 1 1 50,0 z" />
    <path
       sodipodi:type="arc"
       style="opacity:0.98999999;fill:#aaccff;fill-opacity:1;stroke:#4d4d4d;stroke-width:4.59815025;stroke-linecap:round;stroke-linejoin:bevel;stroke-miterlimit:4;stroke-opacity:1;stroke-dasharray:none;stroke-dashoffset:0"
       id="path3768-8"
       sodipodi:cx="215"
       sodipodi:cy="107.36218"
       sodipodi:rx="25"
       sodipodi:ry="25"
       d="m 240,107.36218 a 25,25 0 1 1 -50,0 25,25 0 1 1 50,0 z"
       transform="matrix(1.2681081,0,0,1.3427027,-2.5216164,101.54453)" />
    <path
       sodipodi:type="arc"
       style="opacity:0.98999999;fill:#aaccff;fill-opacity:1;stroke:#4d4d4d;stroke-width:4.59815025;stroke-linecap:round;stroke-linejoin:bevel;stroke-miterlimit:4;stroke-opacity:1;stroke-dasharray:none;stroke-dashoffset:0"
       id="path3768-7"
       sodipodi:cx="215"
       sodipodi:cy="107.36218"
       sodipodi:rx="25"
       sodipodi:ry="25"
       d="m 240,107.36218 a 25,25 0 1 1 -50,0 25,25 0 1 1 50,0 z"
       transform="matrix(1.2681081,0,0,1.3427027,53.42433,-103.59061)" />
    <path
       sodipodi:type="arc"
       style="opacity:0.98999999;fill:#aaccff;fill-opacity:1;stroke:#4d4d4d;stroke-width:4.59815025;stroke-linecap:round;stroke-linejoin:bevel;stroke-miterlimit:4;stroke-opacity:1;stroke-dasharray:none;stroke-dashoffset:0"
       id="path3768-1"
       sodipodi:cx="215"
       sodipodi:cy="107.36218"
       sodipodi:rx="25"
       sodipodi:ry="25"
       d="m 240,107.36218 a 25,25 0 1 1 -50,0 25,25 0 1 1 50,0 z"
       transform="matrix(1.2681081,0,0,1.3427027,193.28919,-84.941958)" />
    <path
       sodipodi:type="arc"
       style="opacity:0.98999999;fill:#aaccff;fill-opacity:1;stroke:#4d4d4d;stroke-width:4.59815025;stroke-linecap:round;stroke-linejoin:bevel;stroke-miterlimit:4;stroke-opacity:1;stroke-dasharray:none;stroke-dashoffset:0"
       id="path3768-72"
       sodipodi:cx="215"
       sodipodi:cy="107.36218"
       sodipodi:rx="25"
       sodipodi:ry="25"
       d="m 240,107.36218 a 25,25 0 1 1 -50,0 25,25 0 1 1 50,0 z"
       transform="matrix(1.2681081,0,0,1.3427027,155.9919,92.220206)" />
    <path
       transform="matrix(1.2681081,0,0,1.2681081,197.01892,12.580194)"
       sodipodi:type="arc"
       style="opacity:0.98999999;fill:#8dd35f;fill-opacity:1;stroke:#4d4d4d;stroke-width:4.73145771;stroke-linecap:round;stroke-linejoin:bevel;stroke-miterlimit:4;stroke-opacity:1;stroke-dasharray:none;stroke-dashoffset:0"
       id="path3768-6-7"
       sodipodi:cx="215"
       sodipodi:cy="107.36218"
       sodipodi:rx="25"
       sodipodi:ry="25"
       d="m 240,107.36218 a 25,25 0 1 1 -50,0 25,25 0 1 1 50,0 z" />
  </g>
</svg>
