<?xml version="1.0" encoding="UTF-8" standalone="no"?>
<!-- Created with Inkscape (http://www.inkscape.org/) -->

<svg
   xmlns:dc="http://purl.org/dc/elements/1.1/"
   xmlns:cc="http://creativecommons.org/ns#"
   xmlns:rdf="http://www.w3.org/1999/02/22-rdf-syntax-ns#"
   xmlns:svg="http://www.w3.org/2000/svg"
   xmlns="http://www.w3.org/2000/svg"
   xmlns:sodipodi="http://sodipodi.sourceforge.net/DTD/sodipodi-0.dtd"
   xmlns:inkscape="http://www.inkscape.org/namespaces/inkscape"
   width="291"
   height="284"
   id="svg3758"
   version="1.1"
   inkscape:version="0.48.0 r9654"
   sodipodi:docname="icon.svg"
   inkscape:export-filename="/home/blywis/svn/des-testbed/Software/DES-SERT/des-aodv/trunk/icon.png"
   inkscape:export-xdpi="36.138996"
   inkscape:export-ydpi="36.138996">
  <defs
     id="defs3760" />
  <sodipodi:namedview
     id="base"
     pagecolor="#ffffff"
     bordercolor="#666666"
     borderopacity="1.0"
     inkscape:pageopacity="0.0"
     inkscape:pageshadow="2"
     inkscape:zoom="1.4"
     inkscape:cx="120.21369"
     inkscape:cy="125.60592"
     inkscape:document-units="px"
     inkscape:current-layer="layer1"
     showgrid="true"
     fit-margin-top="0"
     fit-margin-left="0"
     fit-margin-right="0"
     fit-margin-bottom="0"
     inkscape:window-width="777"
     inkscape:window-height="736"
     inkscape:window-x="235"
     inkscape:window-y="235"
     inkscape:window-maximized="0">
    <inkscape:grid
       type="xygrid"
       id="grid3766"
       empspacing="5"
       visible="true"
       enabled="true"
       snapvisiblegridlinesonly="true" />
  </sodipodi:namedview>
  <metadata
     id="metadata3763">
    <rdf:RDF>
      <cc:Work
         rdf:about="">
        <dc:format>image/svg+xml</dc:format>
        <dc:type
           rdf:resource="http://purl.org/dc/dcmitype/StillImage" />
        <dc:title />
      </cc:Work>
    </rdf:RDF>
  </metadata>
  <g
     inkscape:label="Layer 1"
     inkscape:groupmode="layer"
     id="layer1"
     transform="translate(-213,-4.3621784)">
    <path
       style="fill:none;stroke:#ff0000;stroke-width:6;stroke-linecap:butt;stroke-linejoin:round;stroke-miterlimit:4;stroke-opacity:1;stroke-dasharray:none"
       d="m 293.93033,48.132675 23.25819,97.684425 111.63935,18.60656 27.90983,74.42623"
       id="path4373"
       inkscape:connector-curvature="0" />
    <path
       sodipodi:type="arc"
       style="opacity:0.98999999;fill:#ffeeaa;fill-opacity:1;stroke:#4d4d4d;stroke-width:6.44933939;stroke-linecap:round;stroke-linejoin:bevel;stroke-miterlimit:4;stroke-opacity:1;stroke-dasharray:none;stroke-dashoffset:0"
       id="path3768"
       sodipodi:cx="215"
       sodipodi:cy="107.36218"
       sodipodi:rx="25"
       sodipodi:ry="25"
       d="m 240,107.36218 a 25,25 0 1 1 -50,0 25,25 0 1 1 50,0 z"
       transform="matrix(0.93032787,0,0,0.93032787,50.184426,57.099005)" />
    <path
       transform="matrix(1.2652459,0,0,1.2652459,20.972131,-85.846235)"
       sodipodi:type="arc"
       style="opacity:0.98999999;fill:#c83737;fill-opacity:1;stroke:#4d4d4d;stroke-width:4.74216127;stroke-linecap:round;stroke-linejoin:bevel;stroke-miterlimit:4;stroke-opacity:1;stroke-dasharray:none;stroke-dashoffset:0"
       id="path3768-6"
       sodipodi:cx="215"
       sodipodi:cy="107.36218"
       sodipodi:rx="25"
       sodipodi:ry="25"
       d="m 240,107.36218 a 25,25 0 1 1 -50,0 25,25 0 1 1 50,0 z" />
    <path
       transform="matrix(0.93032787,0,0,0.93032787,124.61065,150.13179)"
       sodipodi:type="arc"
       style="opacity:0.98999999;fill:#ffeeaa;fill-opacity:1;stroke:#4d4d4d;stroke-width:6.44933939;stroke-linecap:round;stroke-linejoin:bevel;stroke-miterlimit:4;stroke-opacity:1;stroke-dasharray:none;stroke-dashoffset:0"
       id="path3768-9"
       sodipodi:cx="215"
       sodipodi:cy="107.36218"
       sodipodi:rx="25"
       sodipodi:ry="25"
       d="m 240,107.36218 a 25,25 0 1 1 -50,0 25,25 0 1 1 50,0 z" />
    <path
       transform="matrix(0.93032787,0,0,0.93032787,199.03688,-35.933782)"
       sodipodi:type="arc"
       style="opacity:0.98999999;fill:#ffeeaa;fill-opacity:1;stroke:#4d4d4d;stroke-width:6.44933939;stroke-linecap:round;stroke-linejoin:bevel;stroke-miterlimit:4;stroke-opacity:1;stroke-dasharray:none;stroke-dashoffset:0"
       id="path3768-5"
       sodipodi:cx="215"
       sodipodi:cy="107.36218"
       sodipodi:rx="25"
       sodipodi:ry="25"
       d="m 240,107.36218 a 25,25 0 1 1 -50,0 25,25 0 1 1 50,0 z" />
    <path
       transform="matrix(1.2652459,0,0,1.2652459,52.603279,10.907868)"
       sodipodi:type="arc"
       style="opacity:0.98999999;fill:#c83737;fill-opacity:1;stroke:#4d4d4d;stroke-width:4.74216127;stroke-linecap:round;stroke-linejoin:bevel;stroke-miterlimit:4;stroke-opacity:1;stroke-dasharray:none;stroke-dashoffset:0"
       id="path3768-6-2"
       sodipodi:cx="215"
       sodipodi:cy="107.36218"
       sodipodi:rx="25"
       sodipodi:ry="25"
       d="m 240,107.36218 a 25,25 0 1 1 -50,0 25,25 0 1 1 50,0 z" />
    <path
       transform="matrix(1.2652459,0,0,1.2652459,188.43114,109.52262)"
       sodipodi:type="arc"
       style="opacity:0.98999999;fill:#c83737;fill-opacity:1;stroke:#4d4d4d;stroke-width:4.74216127;stroke-linecap:round;stroke-linejoin:bevel;stroke-miterlimit:4;stroke-opacity:1;stroke-dasharray:none;stroke-dashoffset:0"
       id="path3768-6-26"
       sodipodi:cx="215"
       sodipodi:cy="107.36218"
       sodipodi:rx="25"
       sodipodi:ry="25"
       d="m 240,107.36218 a 25,25 0 1 1 -50,0 25,25 0 1 1 50,0 z" />
    <path
       transform="matrix(1.2652459,0,0,1.2652459,151.21803,25.793114)"
       sodipodi:type="arc"
       style="opacity:0.98999999;fill:#c83737;fill-opacity:1;stroke:#4d4d4d;stroke-width:4.74216127;stroke-linecap:round;stroke-linejoin:bevel;stroke-miterlimit:4;stroke-opacity:1;stroke-dasharray:none;stroke-dashoffset:0"
       id="path3768-6-26-1"
       sodipodi:cx="215"
       sodipodi:cy="107.36218"
       sodipodi:rx="25"
       sodipodi:ry="25"
       d="m 240,107.36218 a 25,25 0 1 1 -50,0 25,25 0 1 1 50,0 z" />
  </g>
</svg>
